# xmcd
#
# Track frame offsets:
#	150
#	26432
#	47324
#	69733
#	102862
#	124268
#	163242
#	188799
#	234851
#
# Disc length: 3619 seconds
#
# Revision: 1
# Processed by: cddbd v1.5.2PL0 Copyright (c) Steve Scherf et al.
# Submitted via: audiograbber 1.83.01
#
DISCID=6e0e2109
DTITLE=Grateful Dead - 78-01-22 McArthur Court, Uni of Oregon, Eugene OR
DYEAR=1900
DGENRE=
TTITLE0=Minglewood Blues
TTITLE1=Dire Wolf
TTITLE2=Cassidy
TTITLE3=Peggy-O
TTITLE4=El Paso
TTITLE5=Tennessee Jed
TTITLE6=Jack Straw
TTITLE7=Row Jimmy
TTITLE8=The Music Never Stopped
EXTD=
EXTT0=
EXTT1=
EXTT2=
EXTT3=
EXTT4=
EXTT5=
EXTT6=
EXTT7=
EXTT8=
PLAYORDER=
